nColumns=19
nRows=44
DataType=double
version=3
OpenSimVersion=4.1
endheader
time	ground_force_calcn_r_vx	ground_force_calcn_r_vy	ground_force_calcn_r_vz	ground_force_calcn_r_px	ground_force_calcn_r_py	ground_force_calcn_r_pz	ground_force_calcn_r_mx	ground_force_calcn_r_my	ground_force_calcn_r_mz	ground_force_calcn_l_vx	ground_force_calcn_l_vy	ground_force_calcn_l_vz	ground_force_calcn_l_px	ground_force_calcn_l_py	ground_force_calcn_l_pz	ground_force_calcn_l_mx	ground_force_calcn_l_my	ground_force_calcn_l_mz
1.14	2.68754	166.567	-1.5751	0.911352	0	-0.282232	0.0327817	2.03173	-0.0192125	0	0	0	0	0	0	0	0	0
1.15	13.7244	334.804	0.964435	0.975136	0	-0.272645	0.071531	1.74499	0.0050266	0	0	0	0	0	0	0	0	0
1.16	16.9178	566.896	17.587	0.992713	0	-0.270017	0.0702964	2.35556	0.0730774	0	0	0	0	0	0	0	0	0
1.17	-9.08998	742.207	42.2067	0.999866	0	-0.26924	-0.035044	2.86138	0.162717	0	0	0	0	0	0	0	0	0
1.18	-54.2125	804.691	38.5335	1.00358	0	-0.269042	-0.154008	2.28598	0.109467	0	0	0	0	0	0	0	0	0
1.19	-99.3336	822.815	7.88412	1.00339	0	-0.268534	-0.0920348	0.762356	0.00730481	0	0	0	0	0	0	0	0	0
1.2	-131.363	875.909	-14.0253	0.996687	0	-0.267306	0.099	-0.660116	0.01057	0	0	0	0	0	0	0	0	0
1.21	-141.111	978.882	-22.2532	0.983648	0	-0.265877	0.157703	-1.09398	0.0248697	0	0	0	0	0	0	0	0	0
1.22	-134.293	1094.78	-24.6772	0.967955	0	-0.264801	0.0593419	-0.483766	0.0109045	0	0	0	0	0	0	0	0	0
1.23	-121.049	1186.65	-21.875	0.952793	0	-0.264072	-0.0557144	0.546171	-0.0100683	0	0	0	0	0	0	0	0	0
1.24	-106.153	1243.76	-21.2549	0.938961	0	-0.263378	-0.113118	1.32536	-0.0226495	0	0	0	0	0	0	0	0	0
1.25	-91.4982	1269.77	-26.7201	0.926026	0	-0.262398	-0.115353	1.60082	-0.0336865	0	0	0	0	0	0	0	0	0
1.26	-79.7635	1270.55	-34.282	0.913403	0	-0.260946	-0.0935643	1.49038	-0.0402136	0	0	0	0	0	0	0	0	0
1.27	-70.7481	1253.3	-42.7366	0.900668	0	-0.259025	-0.0679471	1.20368	-0.0410446	0	0	0	0	0	0	0	0	0
1.28	-60.7745	1226.41	-49.3203	0.887537	0	-0.256823	-0.0436192	0.880221	-0.0353983	0	0	0	0	0	0	0	0	0
1.29	-46.76	1194.01	-51.662	0.873944	0	-0.254632	-0.0235408	0.60111	-0.0260086	0	0	0	0	0	0	0	0	0
1.3	-29.4651	1153.81	-52.8075	0.860037	0	-0.252713	-0.0110212	0.431571	-0.0197522	0	0	0	0	0	0	0	0	0
1.31	-11.8093	1104.61	-53.7643	0.845933	0	-0.251168	-0.00435884	0.407716	-0.0198445	0	0	0	0	0	0	0	0	0
1.32	5.01787	1050.29	-50.5522	0.831488	0	-0.249976	0.00246616	0.516191	-0.0248451	0	0	0	0	0	0	0	0	0
1.33	22.1372	994.76	-41.6099	0.81635	0	-0.24913	0.0161483	0.725644	-0.030353	0	0	0	0	0	0	0	0	0
1.34	40.4305	937.713	-31.5661	0.800266	0	-0.248716	0.0444461	1.03085	-0.0347013	0	0	0	0	0	0	0	0	0
1.35	58.0447	876.373	-22.1592	0.783306	0	-0.248814	0.0954813	1.4416	-0.0364511	0	0	0	0	0	0	0	0	0
1.36	71.9109	809.99	-11.0247	0.76583	0	-0.249364	0.170829	1.92418	-0.02619	0	0	0	0	0	0	0	0	0
1.37	81.0146	739.555	1.01842	0.748292	0	-0.250109	0.258889	2.36331	0.00325445	0	0	0	0	0	0	0	0	0
1.38	85.6621	664.586	11.3591	0.731057	0	-0.250678	0.334529	2.59535	0.0443596	0	0	0	0	0	0	0	0	0
1.39	86.394	583.703	18.7355	0.714269	0	-0.250726	0.371519	2.5101	0.0805682	0	0	0	0	0	0	0	0	0
1.4	82.5241	497.08	23.2081	0.697711	0	-0.250054	0.360627	2.17222	0.101418	0	0	0	0	0	0	0	0	0
1.41	73.5846	407.397	25.0865	0.680935	0	-0.248652	0.336343	1.86215	0.114666	0	0	0	0	0	0	0	0	0
1.42	61.5163	321.717	22.0633	0.664111	0	-0.246738	0.370821	1.93931	0.132998	0	0	0	0	0	0	0	0	0
1.43	51.2896	247.828	14.9756	0.649456	0	-0.244702	0.521914	2.52185	0.152389	0	0	0	0	0	0	0	0	0
1.44	45.9763	189.741	9.76193	0.640719	0	-0.242593	0.766425	3.16298	0.162732	0	0	0	0	0	0	0	0	0
1.45	42.7981	147.324	9.45917	0.634901	0	-0.240005	0.858603	2.95556	0.189767	0	0	0	0	0	0	0	0	0
1.46	0	0	0	0	0	0	0	0	0	0	0	0	0	0	0	0	0	0
1.47	0	0	0	0	0	0	0	0	0	0	0	0	0	0	0	0	0	0
1.48	0	0	0	0	0	0	0	0	0	0	0	0	0	0	0	0	0	0
1.49	0	0	0	0	0	0	0	0	0	0	0	0	0	0	0	0	0	0
1.5	0	0	0	0	0	0	0	0	0	0	0	0	0	0	0	0	0	0
1.51	0	0	0	0	0	0	0	0	0	31.2747	213.46	-12.2302	0.921261	0	-0.301744	0.243792	1.66396	-0.0953371
1.52	0	0	0	0	0	0	0	0	0	46.905	390.857	-29.3529	0.969999	0	-0.305776	0.17035	1.41951	-0.106604
1.53	0	0	0	0	0	0	0	0	0	36.2828	590.303	-38.4204	0.987519	0	-0.306304	0.0227698	0.370454	-0.0241113
1.54	0	0	0	0	0	0	0	0	0	-2.63004	720.232	-31.3438	0.995159	0	-0.306385	0.00066023	-0.180803	0.00786839
1.55	0	0	0	0	0	0	0	0	0	-45.1239	767.921	-28.1908	0.996616	0	-0.30718	-0.00555218	0.0944874	-0.00346869
1.56	0	0	0	0	0	0	0	0	0	-75.5993	794.284	-26.5307	0.991094	0	-0.308734	-0.0626548	0.658282	-0.0219879
1.57	0	0	0	0	0	0	0	0	0	-93.5027	853.161	-10.4566	0.978462	0	-0.310238	-0.10017	0.913993	-0.0112022
